<?xml version="1.0" encoding="UTF-8" standalone="no"?><!DOCTYPE svg PUBLIC "-//W3C//DTD SVG 1.1//EN" "http://www.w3.org/Graphics/SVG/1.1/DTD/svg11.dtd"><svg width="1958px" height="1958px" version="1.1" xmlns="http://www.w3.org/2000/svg" xmlns:xlink="http://www.w3.org/1999/xlink" xml:space="preserve" xmlns:serif="http://www.serif.com/" style="fill-rule:evenodd;clip-rule:evenodd;stroke-linejoin:round;stroke-miterlimit:2;"><path d="M978.94,0C1519.23,0 1957.88,438.648 1957.88,978.94C1957.88,1519.23 1519.23,1957.88 978.94,1957.88C438.648,1957.88 0,1519.23 0,978.94C0,438.648 438.648,0 978.94,0ZM1272.44,1220.81C1295.54,1243.91 1330.02,1255.28 1375.87,1255.28C1407.5,1255.28 1436.29,1246.75 1459.39,1232.18C1482.5,1214.77 1496.71,1197.7 1502.4,1180.29L1643.15,1180.29C1620.05,1249.24 1585.57,1298.29 1539.72,1329.92C1493.87,1358.71 1439.13,1375.77 1373.02,1375.77C1327.17,1375.77 1286.65,1367.24 1249.34,1352.67C1212.02,1338.45 1183.23,1318.19 1157.28,1289.4C1131.33,1263.46 1111.43,1231.83 1099.7,1194.51C1085.48,1157.19 1079.44,1117.02 1079.44,1070.82C1079.44,1027.81 1085.13,987.292 1099.7,949.972C1114.27,912.653 1134.18,881.02 1160.12,852.23C1186.07,826.284 1217.7,803.181 1252.18,788.964C1289.5,774.747 1326.82,765.862 1373.02,765.862C1422.07,765.862 1465.08,774.392 1502.4,794.651C1539.72,814.91 1568.51,837.658 1591.61,872.134C1614.71,903.767 1631.77,941.087 1643.5,981.25C1649.19,1021.41 1652.03,1061.93 1649.19,1107.78L1232.28,1107.78C1232.28,1154.7 1249.34,1197.7 1272.44,1220.81ZM731.835,582.106C769.154,582.106 803.631,584.95 835.264,593.48C866.897,599.167 892.843,610.896 915.946,625.113C939.048,639.33 956.109,659.589 967.838,685.535C979.211,711.481 985.254,743.114 985.254,777.591C985.254,817.754 976.723,852.23 956.464,878.176C939.048,904.122 910.614,927.225 875.782,944.286C924.831,958.503 962.151,984.449 984.898,1018.93C1007.65,1053.4 1022.22,1096.41 1022.22,1145.46C1022.22,1185.62 1013.69,1220.1 999.115,1248.89C984.898,1277.68 961.796,1303.62 935.849,1320.68C909.903,1338.1 878.27,1352.32 843.794,1360.85C809.318,1369.38 774.841,1375.06 740.365,1375.06L355.083,1375.77L355.083,582.106L731.835,582.106ZM717.262,1243.56C734.678,1243.56 751.739,1240.71 766.311,1237.87C780.528,1235.02 795.101,1229.34 806.474,1220.45C817.848,1211.57 826.734,1203.04 835.264,1188.82C840.951,1174.6 846.637,1157.19 846.637,1136.93C846.637,1096.76 835.264,1067.97 812.161,1047.71C789.058,1030.3 757.425,1021.77 720.106,1021.77L530.663,1021.77L530.663,1243.2L717.262,1243.2L717.262,1243.56ZM1453.71,918.695C1433.45,898.436 1401.81,887.062 1364.49,887.062C1338.55,887.062 1318.64,892.749 1301.23,901.279C1283.81,909.809 1272.44,921.538 1261.07,932.912C1249.69,944.286 1243.65,958.858 1240.81,973.075C1237.96,987.292 1235.12,999.021 1235.12,1010.39L1493.87,1010.39C1488.18,967.744 1473.61,938.954 1453.71,918.695ZM708.732,904.122C740.365,904.122 766.311,895.592 786.215,881.02C806.119,866.447 815.004,840.857 815.004,809.224C815.004,791.808 812.161,774.747 806.474,763.374C800.787,752 792.257,743.114 780.528,734.584C769.154,728.897 757.425,723.21 743.208,720.367C728.991,717.524 714.419,717.524 697.358,717.524L530.663,717.524L530.663,904.478C530.663,904.122 708.732,904.122 708.732,904.122ZM1200.64,616.938L1522.66,616.938L1522.66,694.421L1200.64,694.421L1200.64,616.938Z" style="fill:#EDF8FF;"/></svg>