<?xml version="1.0" encoding="UTF-8" standalone="no"?><!DOCTYPE svg PUBLIC "-//W3C//DTD SVG 1.1//EN" "http://www.w3.org/Graphics/SVG/1.1/DTD/svg11.dtd"><svg width="1958px" height="1958px" version="1.1" xmlns="http://www.w3.org/2000/svg" xmlns:xlink="http://www.w3.org/1999/xlink" xml:space="preserve" xmlns:serif="http://www.serif.com/" style="fill-rule:evenodd;clip-rule:evenodd;stroke-linejoin:round;stroke-miterlimit:2;"><path d="M978.94,0C1519.23,0 1957.88,438.648 1957.88,978.94C1957.88,1519.23 1519.23,1957.88 978.94,1957.88C438.648,1957.88 0,1519.23 0,978.94C0,438.648 438.648,0 978.94,0ZM590.713,905.86L590.713,1050.34L1011.97,1050.34L1011.97,905.86L590.713,905.86ZM1262.28,905.86L1117.81,905.86L1117.81,1324.66L1262.28,1324.66L1262.28,905.86ZM1262.28,382.177L1117.81,382.177L1117.81,800.977L1262.28,800.977L1262.28,382.177ZM735.191,1431.23L735.191,1154.45L590.713,1154.45L590.713,1575.7L1011.97,1575.7L1011.97,1431.23L735.191,1431.23ZM1367.17,1575.7L1367.17,1431.23L1117.81,1431.23L1117.81,1575.7L1367.17,1575.7Z" style="fill:#fff;"/></svg>