<?xml version="1.0" encoding="UTF-8" standalone="no"?><!DOCTYPE svg PUBLIC "-//W3C//DTD SVG 1.1//EN" "http://www.w3.org/Graphics/SVG/1.1/DTD/svg11.dtd"><svg width="1958px" height="1958px" version="1.1" xmlns="http://www.w3.org/2000/svg" xmlns:xlink="http://www.w3.org/1999/xlink" xml:space="preserve" xmlns:serif="http://www.serif.com/" style="fill-rule:evenodd;clip-rule:evenodd;stroke-linejoin:round;stroke-miterlimit:2;"><circle cx="978.94" cy="978.94" r="978.94" style="fill:#218be9;"/><path d="M978.94,360.094C637.3,360.094 360.094,637.3 360.094,978.94C360.094,1320.58 637.3,1597.79 978.94,1597.79C1319.91,1597.79 1597.79,1320.58 1597.79,978.94C1597.79,637.3 1319.91,360.094 978.94,360.094ZM1387.7,645.354C1461.53,735.294 1505.83,850.07 1507.17,974.241C1489.72,970.885 1315.21,935.312 1139.36,957.461C1135.33,948.736 1131.97,939.339 1127.95,929.942C1117.21,904.437 1105.12,878.26 1093.04,853.425C1287.69,774.224 1376.29,660.12 1387.7,645.354ZM978.94,451.377C1113.18,451.377 1236.01,501.717 1329.31,584.275C1319.91,597.699 1240.04,704.42 1052.1,774.895C965.516,615.821 869.534,485.608 854.768,465.472C894.368,456.076 935.983,451.377 978.94,451.377ZM754.088,501.046C768.183,519.839 862.151,650.724 950.078,806.441C703.077,872.219 484.938,870.877 461.445,870.877C495.676,707.104 606.424,570.851 754.088,501.046ZM450.035,979.611L450.035,963.502C472.856,964.173 729.254,967.529 993.035,888.328C1008.47,917.861 1022.57,948.064 1035.99,978.269C1029.28,980.283 1021.9,982.296 1015.18,984.309C742.678,1072.24 597.699,1312.53 585.618,1332.66C501.717,1239.37 450.035,1115.19 450.035,979.611ZM978.94,1507.85C856.782,1507.85 744.02,1466.23 654.75,1396.42C664.148,1376.96 771.54,1170.23 1069.55,1066.2C1070.89,1065.53 1071.57,1065.53 1072.91,1064.85C1147.41,1257.49 1177.62,1419.25 1185.67,1465.56C1121.9,1493.08 1052.1,1507.85 978.94,1507.85ZM1273.6,1417.23C1268.23,1385.02 1240.04,1230.64 1170.9,1040.69C1336.69,1014.51 1481.67,1057.47 1499.79,1063.51C1476.97,1210.5 1392.4,1337.36 1273.6,1417.23Z" style="fill:#fff;"/></svg>