<?xml version="1.0" encoding="UTF-8" standalone="no"?><!DOCTYPE svg PUBLIC "-//W3C//DTD SVG 1.1//EN" "http://www.w3.org/Graphics/SVG/1.1/DTD/svg11.dtd"><svg width="1958px" height="1958px" version="1.1" xmlns="http://www.w3.org/2000/svg" xmlns:xlink="http://www.w3.org/1999/xlink" xml:space="preserve" xmlns:serif="http://www.serif.com/" style="fill-rule:evenodd;clip-rule:evenodd;stroke-linejoin:round;stroke-miterlimit:2;"><path d="M978.94,0C1519.23,0 1957.88,438.648 1957.88,978.94C1957.88,1519.23 1519.23,1957.88 978.94,1957.88C438.648,1957.88 0,1519.23 0,978.94C0,438.648 438.648,0 978.94,0ZM360.094,978.828C360.094,1303.49 610.57,1569.98 928.742,1595.55L928.742,1597.79L978.94,1597.79C1320.8,1597.79 1597.79,1320.6 1597.79,979.052C1597.79,637.53 1320.83,360.094 978.94,360.094C637.08,360.094 360.094,637.281 360.094,978.828ZM880.106,595.926L882.307,597.594L884.751,599.046C888.486,601.262 892.166,603.809 896.761,606.988C898.853,608.437 901.137,610.017 903.702,611.757L905.444,612.939L906.939,613.778C906.931,613.774 906.927,613.774 906.925,613.774C906.92,613.784 907.881,614.395 910.192,616.051C912.785,617.907 915.916,620.238 919.362,622.829C920.639,623.788 922.033,624.84 923.443,625.904C925.541,627.488 927.668,629.093 929.478,630.447C931.869,632.235 934.793,634.407 937.433,636.237C975.954,665.698 1011.17,699.339 1042.52,736.419C1009.16,748.623 974.785,758.018 939.784,764.338L939.773,764.34C863.473,778.095 785.551,778.465 709.953,764.591L709.821,764.566L709.69,764.543C649.733,753.868 591.496,734.625 537.149,707.464C583.89,631.567 649.648,568.614 727.789,525.26L728.392,525.45C736.915,528.132 745.051,530.692 752.885,533.504C755.772,534.607 758.6,535.678 761.363,536.726C774.073,541.545 785.421,545.847 794.899,550.241L797.601,551.591L798.245,551.891C804.222,554.671 812.836,558.777 820.598,562.478C824.723,564.447 828.611,566.299 831.734,567.777L831.85,567.841C834.461,569.243 836.654,570.42 838.698,571.639C840.361,572.718 841.846,573.592 842.643,574.058C844.099,574.911 845.596,575.754 846.83,576.441C847.884,577.027 848.918,577.597 849.694,578.023C849.833,578.1 849.965,578.172 850.084,578.237C850.475,578.452 850.734,578.597 850.91,578.694L851.015,578.754C852.165,579.417 853.562,580.214 855.153,581.123C858.567,583.07 862.881,585.532 867.619,588.305C870.959,590.262 874.084,592.128 876.633,593.708C878.567,594.909 879.6,595.596 879.973,595.843C880.133,595.95 880.17,595.975 880.106,595.926ZM1252.61,1419.37C1300.72,1285.05 1309.86,1137.61 1279.71,998.477C1352.24,983.835 1426.2,982.265 1497.15,995.128C1491.69,1174.19 1395.33,1330.49 1252.61,1419.37ZM1295.06,568.056C1249.19,617.686 1195.47,659.954 1136.65,693.031C1096.21,641.632 1049.42,595.355 997.263,555.62L996.002,554.661L994.695,553.789C994.689,553.785 994.577,553.71 994.339,553.541C994.061,553.345 993.69,553.079 993.214,552.733C992.251,552.034 991.057,551.151 989.626,550.079C987.892,548.781 986.151,547.467 984.264,546.043C982.846,544.972 981.345,543.839 979.702,542.604C976.147,539.932 972.248,537.024 968.667,534.458C966.164,532.664 962.567,530.127 958.893,527.89C958.206,527.417 957.423,526.875 956.563,526.278C951.784,522.968 944.607,517.997 938.079,513.988C931.985,509.716 923.75,504.85 918.355,501.691C913.118,498.624 907.477,495.404 903.986,493.412C902.845,492.761 901.932,492.24 901.34,491.9C900.685,491.517 900.116,491.2 899.894,491.076L899.863,491.059C899.426,490.815 898.937,490.546 898.507,490.309C898.354,490.225 898.202,490.141 898.049,490.056C897.27,489.628 896.49,489.199 895.68,488.747C894.752,488.231 894.001,487.805 893.454,487.486L893.077,487.223L891.744,486.409C886.888,483.441 881.827,480.734 879.114,479.28C878.754,479.088 878.435,478.918 878.165,478.772L876.998,478.144L875.801,477.578C873.406,476.447 869.864,474.76 865.843,472.844C902.247,464.743 940.094,460.471 978.94,460.471C1097.94,460.471 1207.57,500.606 1295.06,568.056ZM781.618,1458.27C840.519,1246.05 1000.19,1094.03 1182.95,1026.11C1214.49,1178.96 1191.59,1342.76 1115.68,1479.18C1076.86,1489.77 1036.22,1495.96 994.332,1497.18L978.94,1497.18C909.09,1497.18 842.452,1483.35 781.618,1458.27ZM493.056,797.645C555.821,828.918 622.934,851.04 691.952,863.341C779.871,879.46 869.938,878.927 957.601,863.121L957.613,863.119C1007.51,854.11 1056.22,839.762 1102.93,820.641C1123.73,855.203 1141.21,891.623 1155.12,929.433C946.533,1004.56 764.362,1173.79 691.164,1409.98C552.111,1316.97 460.489,1158.53 460.489,978.828C460.489,915.103 471.999,854.052 493.056,797.645ZM1490.17,892.361C1411.6,881.326 1330.8,884.913 1251.88,901.772C1236.33,858.163 1216.71,816.153 1193.34,776.263C1258.18,738.812 1317.4,691.676 1368.3,636.713C1430.56,707.501 1473.83,795.382 1490.17,892.361Z" style="fill:#fff;"/></svg>