<?xml version="1.0" encoding="UTF-8" standalone="no"?><!DOCTYPE svg PUBLIC "-//W3C//DTD SVG 1.1//EN" "http://www.w3.org/Graphics/SVG/1.1/DTD/svg11.dtd"><svg width="1958px" height="1958px" version="1.1" xmlns="http://www.w3.org/2000/svg" xmlns:xlink="http://www.w3.org/1999/xlink" xml:space="preserve" xmlns:serif="http://www.serif.com/" style="fill-rule:evenodd;clip-rule:evenodd;stroke-linejoin:round;stroke-miterlimit:2;"><path d="M978.94,0C1519.23,0 1957.88,438.648 1957.88,978.94C1957.88,1519.23 1519.23,1957.88 978.94,1957.88C438.648,1957.88 0,1519.23 0,978.94C0,438.648 438.648,0 978.94,0ZM978.804,360.094C810.789,360.095 789.672,360.83 723.637,363.833C657.707,366.85 612.705,377.28 573.327,392.584C532.595,408.39 498.042,429.534 463.62,463.944C429.171,498.342 408.011,532.868 392.142,573.557C376.788,612.919 366.337,657.901 363.37,723.756C360.415,789.766 359.641,810.872 359.641,978.94C359.641,1147.01 360.389,1168.04 363.382,1234.05C366.415,1299.93 376.853,1344.9 392.154,1384.25C407.985,1424.95 429.145,1459.47 463.581,1493.87C497.991,1528.29 532.543,1549.49 573.249,1565.3C612.652,1580.6 657.669,1591.03 723.586,1594.05C789.645,1597.05 810.74,1597.79 978.92,1597.79C1147.13,1597.79 1168.17,1597.05 1234.23,1594.05C1300.16,1591.03 1345.21,1580.6 1384.62,1565.3C1425.34,1549.49 1459.84,1528.29 1494.25,1493.87C1528.7,1459.47 1549.86,1424.95 1565.73,1384.26C1580.95,1344.9 1591.4,1299.91 1594.5,1234.06C1597.46,1168.05 1598.24,1147.01 1598.24,978.94C1598.24,810.871 1597.46,789.78 1594.5,723.769C1591.4,657.887 1580.95,612.919 1565.73,573.57C1549.86,532.868 1528.7,498.342 1494.25,463.944C1459.8,429.521 1425.35,408.377 1384.58,392.584C1345.1,377.28 1300.07,366.85 1234.14,363.833C1168.1,360.83 1147.07,360.095 978.998,360.094L978.804,360.094ZM923.441,471.616C939.93,471.59 958.329,471.616 978.998,471.616C1144.35,471.616 1163.95,472.209 1229.25,475.174C1289.63,477.933 1322.4,488.015 1344.23,496.485C1373.13,507.702 1393.74,521.11 1415.4,542.77C1437.08,564.43 1450.5,585.058 1461.75,613.937C1470.22,635.725 1480.33,668.473 1483.07,728.81C1486.04,794.047 1486.69,813.644 1486.69,978.798C1486.69,1143.95 1486.04,1163.55 1483.07,1228.79C1480.31,1289.12 1470.22,1321.87 1461.75,1343.66C1450.52,1372.54 1437.08,1393.1 1415.4,1414.75C1393.73,1436.41 1373.15,1449.82 1344.23,1461.03C1322.43,1469.54 1289.63,1479.6 1229.25,1482.36C1163.96,1485.32 1144.35,1485.97 978.998,1485.97C813.63,1485.97 794.032,1485.32 728.747,1482.36C668.365,1479.57 635.594,1469.49 613.75,1461.02C584.849,1449.8 564.205,1436.39 542.53,1414.74C520.854,1393.08 507.436,1372.5 496.185,1343.61C487.708,1321.82 477.606,1289.07 474.858,1228.73C471.89,1163.5 471.296,1143.9 471.296,978.643C471.296,813.386 471.89,793.892 474.858,728.655C477.619,668.318 487.708,635.571 496.185,613.757C507.409,584.877 520.854,564.249 542.53,542.589C564.205,520.929 584.849,507.521 613.75,496.279C635.58,487.77 668.365,477.714 728.747,474.941C785.878,472.363 808.018,471.59 923.441,471.46L923.441,471.616ZM978.985,661.137C803.353,661.143 660.959,803.437 660.959,978.94C660.959,1154.45 803.36,1296.68 978.998,1296.68C1154.63,1296.68 1296.99,1154.45 1296.99,978.94C1296.99,803.437 1154.63,661.143 978.998,661.137L978.985,661.137ZM978.998,772.658C1093,772.658 1185.43,865.008 1185.43,978.94C1185.43,1092.86 1093,1185.22 978.998,1185.22C864.981,1185.22 772.563,1092.86 772.563,978.94C772.563,865.008 864.981,772.658 978.998,772.658ZM1309.58,574.369C1268.55,574.369 1235.26,607.594 1235.26,648.605C1235.26,689.604 1268.55,722.867 1309.58,722.867C1350.61,722.867 1383.89,689.604 1383.89,648.605C1383.89,607.607 1350.61,574.344 1309.58,574.344L1309.58,574.369Z" style="fill:#fff;"/></svg>