<?xml version="1.0" encoding="UTF-8" standalone="no"?><!DOCTYPE svg PUBLIC "-//W3C//DTD SVG 1.1//EN" "http://www.w3.org/Graphics/SVG/1.1/DTD/svg11.dtd"><svg width="1703px" height="1703px" version="1.1" xmlns="http://www.w3.org/2000/svg" xmlns:xlink="http://www.w3.org/1999/xlink" xml:space="preserve" xmlns:serif="http://www.serif.com/" style="fill-rule:evenodd;clip-rule:evenodd;stroke-linejoin:round;stroke-miterlimit:2;"><g><path d="M1164.55,1702.11C1461.44,1702.11 1702.11,1461.44 1702.11,1164.55C1702.11,867.666 1461.44,626.994 1164.55,626.994L1164.55,1702.11Z" style="fill:url(#_Linear1);"/><path d="M626.993,0C626.994,296.885 867.666,537.558 1164.55,537.558C1461.44,537.558 1702.11,296.885 1702.11,0L626.993,0Z" style="fill:url(#_Linear2);"/><path d="M537.558,0C240.673,0 -0,240.673 -0,537.558C-0,834.443 240.673,1075.12 537.558,1075.12L537.558,0Z" style="fill:url(#_Linear3);"/><path d="M1075.12,1702.11C1075.12,1405.23 834.443,1164.55 537.558,1164.55C240.673,1164.55 -0,1405.23 0,1702.11L1075.12,1702.11Z" style="fill:url(#_Linear4);"/></g><defs><linearGradient id="_Linear1" x1="0" y1="0" x2="1" y2="0" gradientUnits="userSpaceOnUse" gradientTransform="matrix(-1702.11,-1702.11,1702.11,-1702.11,1702.11,1702.11)"><stop offset="0" style="stop-color:#145eee;stop-opacity:1"/><stop offset="1" style="stop-color:#2eb9e3;stop-opacity:1"/></linearGradient><linearGradient id="_Linear2" x1="0" y1="0" x2="1" y2="0" gradientUnits="userSpaceOnUse" gradientTransform="matrix(-1702.11,-1702.11,1702.11,-1702.11,1702.11,1702.11)"><stop offset="0" style="stop-color:#145eee;stop-opacity:1"/><stop offset="1" style="stop-color:#2eb9e3;stop-opacity:1"/></linearGradient><linearGradient id="_Linear3" x1="0" y1="0" x2="1" y2="0" gradientUnits="userSpaceOnUse" gradientTransform="matrix(-1702.11,-1702.11,1702.11,-1702.11,1702.11,1702.11)"><stop offset="0" style="stop-color:#145eee;stop-opacity:1"/><stop offset="1" style="stop-color:#2eb9e3;stop-opacity:1"/></linearGradient><linearGradient id="_Linear4" x1="0" y1="0" x2="1" y2="0" gradientUnits="userSpaceOnUse" gradientTransform="matrix(-1702.11,-1702.11,1702.11,-1702.11,1702.11,1702.11)"><stop offset="0" style="stop-color:#145eee;stop-opacity:1"/><stop offset="1" style="stop-color:#2eb9e3;stop-opacity:1"/></linearGradient></defs></svg>