<?xml version="1.0" encoding="UTF-8" standalone="no"?><!DOCTYPE svg PUBLIC "-//W3C//DTD SVG 1.1//EN" "http://www.w3.org/Graphics/SVG/1.1/DTD/svg11.dtd"><svg width="1500px" height="1500px" version="1.1" xmlns="http://www.w3.org/2000/svg" xmlns:xlink="http://www.w3.org/1999/xlink" xml:space="preserve" xmlns:serif="http://www.serif.com/" style="fill-rule:evenodd;clip-rule:evenodd;stroke-linejoin:round;stroke-miterlimit:2;"><g><path d="M473.728,0C212.095,0 0,212.095 0,473.728C0,735.361 212.095,947.456 473.728,947.456L473.728,0Z" style="fill:#EDF8FF;"/><path d="M947.456,1500C947.456,1238.37 735.361,1026.27 473.728,1026.27C212.095,1026.27 -0,1238.37 0,1500L947.456,1500Z" style="fill:#EDF8FF;"/><path d="M1026.27,1500C1287.9,1500 1500,1287.9 1500,1026.27C1500,764.639 1287.9,552.544 1026.27,552.544L1026.27,1500Z" style="fill:#EDF8FF;"/><path d="M552.544,0C552.544,261.633 764.639,473.728 1026.27,473.728C1287.9,473.728 1500,261.633 1500,0L552.544,0Z" style="fill:#EDF8FF;"/></g></svg>