<?xml version="1.0" encoding="UTF-8" standalone="no"?><!DOCTYPE svg PUBLIC "-//W3C//DTD SVG 1.1//EN" "http://www.w3.org/Graphics/SVG/1.1/DTD/svg11.dtd"><svg width="1165px" height="141px" version="1.1" xmlns="http://www.w3.org/2000/svg" xmlns:xlink="http://www.w3.org/1999/xlink" xml:space="preserve" xmlns:serif="http://www.serif.com/" style="fill-rule:evenodd;clip-rule:evenodd;stroke-linejoin:round;stroke-miterlimit:2;"><g><g><path d="M87.015,36.239C79.19,28.864 69.128,25.177 56.83,25.177C50.371,25.177 44.905,26.512 40.433,29.182C35.961,31.852 33.725,35.349 33.725,39.672C33.725,45.267 35.992,49.113 40.526,51.212C45.06,53.31 52.11,54.804 61.675,55.694C95.09,58.873 111.797,73.177 111.797,98.608C111.797,112.468 106.487,122.959 95.866,130.079C85.245,137.2 72.233,140.76 56.83,140.76C45.278,141.014 34.222,138.821 23.664,134.18C13.105,129.539 5.217,122.768 -0,113.867L17.329,95.557C21.8,101.66 27.794,106.301 35.309,109.48C42.824,112.659 50.06,114.248 57.017,114.248C64.967,114.248 71.302,112.818 76.022,109.957C80.742,107.096 83.102,103.186 83.102,98.227C83.102,92.759 80.991,88.69 76.767,86.02C72.544,83.35 65.898,81.633 56.83,80.87C49.129,80.235 42.483,79.186 36.893,77.723C31.303,76.261 25.931,74.068 20.776,71.143C15.621,68.218 11.708,64.15 9.037,58.936C6.366,53.723 5.093,47.365 5.217,39.863C5.217,31.344 7.702,24 12.67,17.833C17.639,11.666 23.943,7.152 31.583,4.291C39.222,1.43 47.576,0 56.644,0C67.327,0 76.519,1.462 84.22,4.387C91.922,7.311 98.94,12.525 105.276,20.027L87.015,36.239Z" style="fill:#fff;fill-rule:nonzero;"/><path d="M149.029,100.154C149.774,104.986 152.321,109.023 156.669,112.266C161.016,115.508 166.792,117.129 173.997,117.129C184.431,117.129 192.381,114.65 197.847,109.691L212.94,126.857C203.748,136.139 190.58,140.78 173.438,140.78C157.041,140.78 144.34,136.171 135.334,126.952C126.328,117.733 121.825,105.495 121.825,90.236C121.825,75.868 126.266,64.169 135.148,55.141C144.029,46.113 155.861,41.599 170.643,41.599C184.928,41.599 196.325,45.541 204.834,53.425C213.343,61.308 217.598,72.625 217.598,87.375C217.598,92.08 217.287,96.339 216.666,100.154L149.029,100.154ZM192.63,80.127C192.381,75.295 190.146,71.576 185.922,68.969C181.699,66.363 176.606,65.059 170.643,65.059C165.178,65.059 160.55,66.395 156.762,69.065C152.973,71.735 150.395,75.423 149.029,80.127L192.63,80.127Z" style="fill:#fff;fill-rule:nonzero;"/><path d="M302.991,43.697L329.077,43.697L329.077,140.78L302.991,140.78L303.363,126.094C300.63,131.053 296.531,134.74 291.066,137.156C285.6,139.572 280.259,140.78 275.041,140.78C261.005,140.78 249.577,136.266 240.757,127.238C231.937,118.21 227.528,106.067 227.528,90.808C227.528,75.804 231.968,63.851 240.85,54.951C249.732,46.05 260.943,41.599 274.482,41.599C288.271,41.599 297.773,45.923 302.991,54.569L302.991,43.697ZM278.582,65.822C271.625,65.822 265.849,68.079 261.253,72.593C256.657,77.107 254.359,83.179 254.359,90.808C254.359,98.438 256.657,104.477 261.253,108.928C265.849,113.378 271.625,115.603 278.582,115.603C285.786,115.603 291.656,113.187 296.19,108.356C300.724,103.524 302.991,97.992 302.991,91.762C302.991,84.641 300.817,78.538 296.469,73.452C292.121,68.365 286.159,65.822 278.582,65.822Z" style="fill:#fff;fill-rule:nonzero;"/><path d="M347.107,140.78L347.107,43.697L372.261,43.697L372.261,55.714C379.341,46.304 388.968,41.599 401.142,41.599C413.191,41.599 422.756,45.033 429.836,51.899C436.917,58.765 440.457,70.781 440.457,87.947L440.457,140.78L413.439,140.78L413.439,88.138C413.439,73.515 407.104,66.204 394.434,66.204C388.347,66.204 383.347,68.461 379.435,72.975C375.522,77.489 373.565,82.925 373.565,89.282L373.565,140.78L347.107,140.78Z" style="fill:#fff;"/></g><g><path d="M632.597,140.78L608.701,140.78L580.698,66.061L553.628,140.78L529.733,140.78L478.446,0L511.116,0L543.411,90.815L573.366,0L587.551,0L618.97,91.19L649.778,0L682.448,0L632.597,140.78Z" style="fill:#fff;fill-rule:nonzero;"/><path d="M744.126,43.511L770.262,43.511L770.262,140.78L744.126,140.78L744.499,126.065C741.761,131.034 737.654,134.729 732.178,137.149C726.702,139.57 721.35,140.78 716.123,140.78C702.059,140.78 690.609,136.257 681.773,127.212C672.936,118.167 668.518,106 668.518,90.712C668.518,75.679 672.967,63.704 681.866,54.786C690.765,45.868 701.997,41.409 715.563,41.409C729.378,41.409 738.899,45.74 744.126,54.404L744.126,43.511ZM719.67,65.678C712.701,65.678 706.913,67.94 702.308,72.462C697.703,76.985 695.401,83.068 695.401,90.712C695.401,98.356 697.703,104.408 702.308,108.867C706.913,113.326 712.701,115.555 719.67,115.555C726.889,115.555 732.769,113.134 737.312,108.293C741.855,103.452 744.126,97.91 744.126,91.668C744.126,84.533 741.948,78.418 737.592,73.322C733.236,68.226 727.262,65.678 719.67,65.678Z" style="fill:#fff;fill-rule:nonzero;"/><path d="M945.621,43.511L971.757,43.511L971.757,140.78L945.621,140.78L945.995,126.065C943.257,131.034 939.15,134.729 933.673,137.149C928.197,139.57 922.846,140.78 917.618,140.78C903.555,140.78 892.105,136.257 883.268,127.212C874.432,118.167 870.013,106 870.013,90.712C870.013,75.679 874.463,63.704 883.361,54.786C892.26,45.868 903.492,41.409 917.058,41.409C930.873,41.409 940.394,45.74 945.621,54.404L945.621,43.511ZM921.165,65.678C914.196,65.678 908.409,67.94 903.804,72.462C899.199,76.985 896.896,83.068 896.896,90.712C896.896,98.356 899.199,104.408 903.804,108.867C908.409,113.326 914.196,115.555 921.165,115.555C928.384,115.555 934.265,113.134 938.807,108.293C943.35,103.452 945.621,97.91 945.621,91.668C945.621,84.533 943.443,78.418 939.087,73.322C934.731,68.226 928.757,65.678 921.165,65.678Z" style="fill:#fff;fill-rule:nonzero;"/><rect x="785.891" y="0" width="26.696" height="140.78" style="fill:#fff;fill-rule:nonzero;"/><rect x="830.035" y="0" width="26.696" height="140.78" style="fill:#fff;fill-rule:nonzero;"/><path d="M1068.49,125.683C1059.15,135.748 1047.14,140.78 1032.46,140.78C1018.02,140.78 1006.01,136.544 996.427,128.072C986.844,119.6 982.053,107.274 982.053,91.094C982.053,75.807 986.906,63.672 996.614,54.69C1006.32,45.709 1018.21,41.218 1032.27,41.218C1046.46,41.218 1057.6,45.677 1065.69,54.595L1050.75,71.985C1045.9,68.29 1040.11,66.443 1033.39,66.443C1026.42,66.443 1020.63,68.64 1016.03,73.036C1011.43,77.431 1009.12,83.45 1009.12,91.094C1009.12,98.356 1011.43,104.121 1016.03,108.389C1020.63,112.657 1026.24,114.791 1032.83,114.791C1036.07,114.791 1039.46,114.154 1043.01,112.88C1046.55,111.606 1049.38,109.886 1051.5,107.72L1068.49,125.683Z" style="fill:#fff;fill-rule:nonzero;"/><path d="M1095.75,100.076C1096.49,104.917 1099.04,108.962 1103.4,112.211C1107.76,115.459 1113.54,117.084 1120.76,117.084C1131.21,117.084 1139.18,114.6 1144.66,109.631L1159.78,126.83C1150.57,136.13 1137.38,140.78 1120.2,140.78C1103.77,140.78 1091.05,136.162 1082.02,126.925C1073,117.689 1068.49,105.427 1068.49,90.139C1068.49,75.743 1072.94,64.022 1081.84,54.977C1090.74,45.932 1102.59,41.409 1117.4,41.409C1131.71,41.409 1143.13,45.358 1151.66,53.257C1160.18,61.156 1164.44,72.494 1164.44,87.272C1164.44,91.986 1164.13,96.254 1163.51,100.076L1095.75,100.076ZM1139.43,80.011C1139.18,75.17 1136.94,71.443 1132.71,68.831C1128.48,66.22 1123.37,64.914 1117.4,64.914C1111.92,64.914 1107.29,66.252 1103.49,68.927C1099.7,71.602 1097.11,75.297 1095.75,80.011L1139.43,80.011Z" style="fill:#fff;fill-rule:nonzero;"/></g></g></svg>