<?xml version="1.0" encoding="UTF-8" standalone="no"?><!DOCTYPE svg PUBLIC "-//W3C//DTD SVG 1.1//EN" "http://www.w3.org/Graphics/SVG/1.1/DTD/svg11.dtd"><svg width="4855px" height="571px" version="1.1" xmlns="http://www.w3.org/2000/svg" xmlns:xlink="http://www.w3.org/1999/xlink" xml:space="preserve" xmlns:serif="http://www.serif.com/" style="fill-rule:evenodd;clip-rule:evenodd;stroke-linejoin:round;stroke-miterlimit:2;"><g><g><path d="M1387.73,177.378L1387.73,570.628L1252.06,570.628L1252.06,522.32C1239.28,537.92 1223.55,549.871 1204.87,558.173C1186.19,566.476 1165.79,570.628 1143.66,570.628C1105.81,570.628 1072.88,562.576 1044.86,546.474C1016.84,530.372 995.206,507.35 979.967,477.41C964.728,447.47 957.109,411.239 957.109,370.983C957.109,332.237 964.851,296.51 980.336,266.066C995.821,235.623 1017.33,211.847 1044.86,194.738C1072.38,177.629 1103.85,169.075 1139.24,169.075C1190.36,169.075 1226.99,185.68 1249.11,218.892L1249.11,177.378L1387.73,177.378ZM1170.95,455.898C1193.07,455.898 1211.5,447.973 1226.25,432.122C1241,416.271 1248.37,395.137 1248.37,370.983C1248.37,344.314 1241.49,322.299 1227.72,307.203C1213.96,292.107 1195.03,284.559 1170.95,284.559C1148.33,284.559 1130.14,292.484 1116.38,308.335C1102.62,324.186 1095.74,345.823 1095.74,370.983C1095.74,396.143 1102.62,417.529 1116.38,432.877C1130.14,448.224 1148.33,455.898 1170.95,455.898Z" style="fill:#edf8ff;"/><path d="M363.524,161.527C331.08,136.367 289.541,123.787 238.908,123.787C218.754,123.787 201.671,127.184 187.661,133.977C173.651,140.77 166.646,150.96 166.646,164.546C166.646,176.623 170.21,185.806 177.338,192.096C184.466,198.386 193.806,202.789 205.358,205.305C216.91,207.821 233.501,210.337 255.131,212.853C317.561,219.898 369.055,237.384 409.61,265.312C450.166,293.239 470.443,335.885 470.443,393.25C470.443,432.499 459.628,465.459 437.999,492.128C416.369,518.798 387.981,538.549 352.832,551.38C317.684,564.212 279.218,570.628 237.434,570.628C202.531,570.628 172.176,568.112 146.368,563.08C120.56,558.048 95.735,548.613 71.894,534.775C48.052,520.937 24.087,500.934 0,474.768L82.586,377.399C123.878,418.661 175.74,439.293 238.171,439.293C263.242,439.293 283.397,435.015 298.636,426.461C313.875,417.907 321.494,406.081 321.494,390.986C321.494,362.806 291.999,346.201 233.01,341.169C188.767,337.143 151.038,329.721 119.823,318.902C88.608,308.083 63.537,290.346 44.611,265.689C25.685,241.032 16.222,207.318 16.222,164.546C16.222,128.316 26.668,97.746 47.56,72.838C68.453,47.93 95.735,29.563 129.409,17.738C163.082,5.913 199.582,0 238.908,0C279.71,0 316.087,5.032 348.04,15.096C379.992,25.16 409.979,41.514 437.999,64.158L363.524,161.527Z" style="fill:#edf8ff;fill-rule:nonzero;"/><path d="M717.463,169.075C756.298,169.075 790.831,176.371 821.064,190.964C851.296,205.557 875.138,226.565 892.589,253.99C910.04,281.414 918.765,314.248 918.765,352.491C918.765,370.606 916.553,389.979 912.129,410.61L649.625,410.61C654.54,426.209 665.355,438.286 682.069,446.841C698.783,455.395 715.988,459.672 733.685,459.672C772.028,459.672 803.981,449.357 829.543,428.725L898.119,507.224C875.998,528.359 850.313,544.21 821.064,554.777C791.815,565.344 760.476,570.628 727.049,570.628C686.247,570.628 649.379,563.457 616.443,549.116C583.507,534.775 557.33,512.76 537.913,483.071C518.495,453.382 508.787,416.145 508.787,371.361C508.787,327.079 518.741,289.717 538.65,259.273C558.559,228.83 584.367,206.186 616.074,191.341C647.781,176.497 681.577,169.075 717.463,169.075ZM786.776,323.054C786.284,307.455 779.402,295.126 766.129,286.069C752.857,277.011 737.618,272.482 720.412,272.482C702.715,272.482 687.108,276.885 673.589,285.691C660.071,294.497 652.328,306.951 650.362,323.054L786.776,323.054Z" style="fill:#edf8ff;fill-rule:nonzero;"/><path d="M1438.02,570.628L1438.02,169.075L1567.79,169.075L1567.79,211.344C1582.54,193.732 1600.11,180.774 1620.51,172.471C1640.91,164.169 1661.68,160.017 1682.82,160.017C1728.05,160.017 1764.3,173.981 1791.59,201.909C1818.87,229.836 1832.51,276.005 1832.51,340.414L1832.51,570.628L1693.14,570.628L1693.14,341.169C1693.14,319.028 1688.11,302.8 1678.03,292.484C1667.95,282.169 1655.54,277.011 1640.79,277.011C1622.6,277.011 1607.24,283.301 1594.71,295.881C1582.17,308.461 1575.9,326.828 1575.9,350.981L1575.9,570.628L1438.02,570.628Z" style="fill:#edf8ff;"/></g><g><path d="M3171.3,177.378L3171.3,570.628L3035.62,570.628L3035.62,522.32C3022.84,537.92 3007.11,549.871 2988.43,558.173C2969.75,566.476 2949.35,570.628 2927.23,570.628C2889.38,570.628 2856.44,562.576 2828.42,546.474C2800.4,530.372 2778.77,507.35 2763.53,477.41C2748.3,447.47 2740.68,411.239 2740.68,370.983C2740.68,332.237 2748.42,296.51 2763.9,266.066C2779.39,235.623 2800.89,211.847 2828.42,194.738C2855.95,177.629 2887.41,169.075 2922.81,169.075C2973.93,169.075 3010.55,185.68 3032.68,218.892L3032.68,177.378L3171.3,177.378ZM2954.51,455.898C2976.64,455.898 2995.07,447.973 3009.82,432.122C3024.57,416.271 3031.94,395.137 3031.94,370.983C3031.94,344.314 3025.06,322.299 3011.29,307.203C2997.53,292.107 2978.6,284.559 2954.51,284.559C2931.9,284.559 2913.71,292.484 2899.95,308.335C2886.18,324.186 2879.3,345.823 2879.3,370.983C2879.3,396.143 2886.18,417.529 2899.95,432.877C2913.71,448.224 2931.9,455.898 2954.51,455.898Z" style="fill:#edf8ff;"/><path d="M4022.72,177.378L4022.72,570.628L3887.04,570.628L3887.04,522.32C3874.26,537.92 3858.53,549.871 3839.85,558.173C3821.17,566.476 3800.77,570.628 3778.65,570.628C3740.8,570.628 3707.86,562.576 3679.84,546.474C3651.82,530.372 3630.19,507.35 3614.95,477.41C3599.71,447.47 3592.09,411.239 3592.09,370.983C3592.09,332.237 3599.83,296.51 3615.32,266.066C3630.8,235.623 3652.31,211.847 3679.84,194.738C3707.37,177.629 3738.83,169.075 3774.22,169.075C3825.35,169.075 3861.97,185.68 3884.09,218.892L3884.09,177.378L4022.72,177.378ZM3805.93,455.898C3828.05,455.898 3846.49,447.973 3861.23,432.122C3875.98,416.271 3883.35,395.137 3883.35,370.983C3883.35,344.314 3876.47,322.299 3862.71,307.203C3848.94,292.107 3830.02,284.559 3805.93,284.559C3783.32,284.559 3765.13,292.484 3751.36,308.335C3737.6,324.186 3730.72,345.823 3730.72,370.983C3730.72,396.143 3737.6,417.529 3751.36,432.877C3765.13,448.224 3783.32,455.898 3805.93,455.898Z" style="fill:#edf8ff;"/><path d="M2422.44,0L2532.38,344.188C2539.26,306.951 2635.97,0 2635.97,0L2799.66,0L2596.53,570.628L2474.13,570.628L2379.74,310.222L2379.38,311.272L2379.01,310.222L2284.62,570.628L2162.22,570.628L1959.09,0L2122.78,0C2122.78,0 2219.49,306.951 2226.37,344.188L2336.31,0L2422.44,0Z" style="fill:#edf8ff;"/><rect x="3224.85" y="0" width="135.676" height="570.628" style="fill:#edf8ff;fill-rule:nonzero;"/><rect x="3410.81" y="0" width="137.889" height="570.628" style="fill:#edf8ff;fill-rule:nonzero;"/><path d="M4440.21,505.715C4392.53,548.99 4340.91,570.628 4285.36,570.628C4247.02,570.628 4211.75,563.834 4179.55,550.248C4147.35,536.662 4121.54,515.024 4102.12,485.335C4082.71,455.647 4073,417.907 4073,372.116C4073,327.331 4082.83,288.333 4102.49,258.141C4122.16,227.949 4147.84,205.557 4179.55,190.964C4211.26,176.371 4245.79,169.075 4283.15,169.075C4311.17,169.075 4337.84,174.107 4363.15,184.171C4388.47,194.235 4410.96,209.079 4430.62,228.704L4356.15,310.977C4337.96,292.359 4316.33,283.049 4291.26,283.049C4265.21,283.049 4245.05,291.352 4230.8,307.958C4216.54,324.563 4209.41,347.207 4209.41,372.87C4209.41,394.508 4216.66,413.126 4231.16,428.725C4245.66,444.325 4265.45,452.124 4290.52,452.124C4317.56,452.124 4340.91,441.305 4360.57,419.668L4440.21,505.715Z" style="fill:#edf8ff;fill-rule:nonzero;"/><path d="M4652.86,169.075C4691.7,169.075 4726.23,176.371 4756.47,190.964C4786.7,205.557 4810.54,226.565 4827.99,253.99C4845.44,281.414 4854.17,314.248 4854.17,352.491C4854.17,370.606 4851.95,389.979 4847.53,410.61L4585.03,410.61C4589.94,426.209 4600.76,438.286 4617.47,446.841C4634.18,455.395 4651.39,459.672 4669.09,459.672C4707.43,459.672 4739.38,449.357 4764.94,428.725L4833.52,507.224C4811.4,528.359 4785.71,544.21 4756.47,554.777C4727.22,565.344 4695.88,570.628 4662.45,570.628C4621.65,570.628 4584.78,563.457 4551.84,549.116C4518.91,534.775 4492.73,512.76 4473.31,483.071C4453.9,453.382 4444.19,416.145 4444.19,371.361C4444.19,327.079 4454.14,289.717 4474.05,259.273C4493.96,228.83 4519.77,206.186 4551.48,191.341C4583.18,176.497 4616.98,169.075 4652.86,169.075ZM4722.18,323.054C4721.69,307.455 4714.8,295.126 4701.53,286.069C4688.26,277.011 4673.02,272.482 4655.81,272.482C4638.12,272.482 4622.51,276.885 4608.99,285.691C4595.47,294.497 4587.73,306.951 4585.76,323.054L4722.18,323.054Z" style="fill:#edf8ff;fill-rule:nonzero;"/></g></g></svg>