<?xml version="1.0" encoding="UTF-8" standalone="no"?><!DOCTYPE svg PUBLIC "-//W3C//DTD SVG 1.1//EN" "http://www.w3.org/Graphics/SVG/1.1/DTD/svg11.dtd"><svg width="6084px" height="684px" version="1.1" xmlns="http://www.w3.org/2000/svg" xmlns:xlink="http://www.w3.org/1999/xlink" xml:space="preserve" xmlns:serif="http://www.serif.com/" style="fill-rule:evenodd;clip-rule:evenodd;stroke-linejoin:round;stroke-miterlimit:2;"><path d="M432.247,175.861C393.373,140.072 343.391,122.177 282.303,122.177C250.216,122.177 223.066,128.656 200.852,141.614C178.638,154.572 167.531,171.541 167.531,192.521C167.531,219.672 178.792,238.338 201.314,248.519C223.837,258.701 258.855,265.951 306.368,270.27C472.356,285.697 555.35,355.115 555.35,478.527C555.35,545.786 528.971,596.693 476.213,631.248C423.454,665.803 358.818,683.08 282.303,683.08C224.917,684.315 169.999,673.67 117.549,651.148C65.099,628.625 25.916,595.767 -0,552.573L86.079,463.717C108.293,493.336 138.066,515.858 175.398,531.285C212.73,546.711 248.673,554.424 283.228,554.424C322.72,554.424 354.19,547.482 377.638,533.599C401.086,519.715 412.81,500.741 412.81,476.675C412.81,450.142 402.32,430.396 381.34,417.438C360.36,404.48 327.348,396.15 282.303,392.447C244.045,389.362 211.033,384.271 183.265,377.175C155.498,370.079 128.81,359.435 103.203,345.243C77.595,331.05 58.157,311.304 44.891,286.005C31.624,260.706 25.299,229.853 25.916,193.447C25.916,152.104 38.257,116.469 62.94,86.542C87.622,56.615 118.937,34.709 156.886,20.826C194.835,6.942 236.332,0 281.377,0C334.444,0 380.106,7.096 418.364,21.288C456.621,35.481 491.485,60.78 522.955,97.186L432.247,175.861Z" style="fill:#fff;fill-rule:nonzero;"/><path d="M748.797,483.154C752.499,506.603 765.149,526.194 786.746,541.929C808.343,557.664 837.036,565.531 872.825,565.531C924.658,565.531 964.149,553.499 991.3,529.434L1066.27,612.736C1020.61,657.781 955.202,680.304 870.048,680.304C788.597,680.304 725.503,657.935 680.766,613.199C636.03,568.462 613.662,509.071 613.662,435.024C613.662,365.297 635.721,308.528 679.841,264.717C723.96,220.906 782.735,199 856.164,199C927.126,199 983.741,218.129 1026.01,256.387C1068.28,294.644 1089.41,349.562 1089.41,421.14C1089.41,443.971 1087.87,464.643 1084.78,483.154L748.797,483.154ZM965.383,385.968C964.149,362.52 953.042,344.471 932.062,331.822C911.082,319.172 885.783,312.847 856.164,312.847C829.014,312.847 806.029,319.326 787.209,332.284C768.388,345.243 755.584,363.137 748.797,385.968L965.383,385.968Z" style="fill:#fff;fill-rule:nonzero;"/><path d="M1527.21,208.256L1652.17,208.256L1652.17,665.494L1531.84,665.494L1524.44,608.108C1510.86,632.173 1490.5,650.068 1463.35,661.792C1436.2,673.516 1409.66,679.378 1383.75,679.378C1314.02,679.378 1257.25,657.473 1213.44,613.662C1169.63,569.851 1147.72,510.922 1147.72,436.875C1147.72,364.063 1169.78,306.06 1213.9,262.866C1258.02,219.672 1313.71,198.075 1380.97,198.075C1449.46,198.075 1496.67,219.055 1522.58,261.014L1527.21,208.256ZM1401.33,315.624C1366.78,315.624 1338.09,326.577 1315.25,348.482C1292.42,370.388 1281.01,399.852 1281.01,436.875C1281.01,473.899 1292.42,503.209 1315.25,524.806C1338.09,546.403 1366.78,557.201 1401.33,557.201C1437.12,557.201 1466.28,545.477 1488.8,522.029C1511.32,498.581 1522.58,471.739 1522.58,441.503C1522.58,406.948 1511.79,377.329 1490.19,352.647C1468.59,327.965 1438.97,315.624 1401.33,315.624Z" style="fill:#fff;fill-rule:nonzero;"/><path d="M2094.6,665.494L2094.6,423.917C2094.6,352.956 2063.12,317.475 2000.18,317.475C1969.95,317.475 1945.11,328.428 1925.68,350.333C1906.24,372.239 1896.52,398.618 1896.52,429.471L1896.52,665.494L1765.09,665.494L1765.09,208.256L1885.41,208.256L1890.04,266.568C1925.21,220.906 1973.04,198.075 2033.51,198.075C2093.36,198.075 2140.87,214.735 2176.05,248.056C2211.22,281.377 2228.8,339.689 2228.8,422.992L2228.8,665.494L2094.6,665.494Z" style="fill:#fff;fill-rule:nonzero;"/><path d="M3251.57,664.569L3133.1,664.569L2994.26,302.666L2860.05,664.569L2741.58,664.569L2500,17.586L2661.98,17.586L2742.5,238.8L2800.82,447.982L2946.13,17.586L3040.54,17.586L3192.34,447.982L3247.87,239.726L3324.7,17.586L3486.67,17.586L3251.57,664.569Z" style="fill:#fff;fill-rule:nonzero;"/><path d="M3849.5,208.256L3974.45,208.256L3974.45,665.494L3854.13,665.494L3846.72,608.108C3833.15,632.173 3812.79,650.068 3785.64,661.792C3758.49,673.516 3731.95,679.378 3706.03,679.378C3636.31,679.378 3579.54,657.473 3535.73,613.662C3491.92,569.851 3470.01,510.922 3470.01,436.875C3470.01,364.063 3492.07,306.06 3536.19,262.866C3580.31,219.672 3636,198.075 3703.26,198.075C3771.75,198.075 3818.96,219.055 3844.87,261.014L3849.5,208.256ZM3723.62,315.624C3689.07,315.624 3660.37,326.577 3637.54,348.482C3614.71,370.388 3603.3,399.852 3603.3,436.875C3603.3,473.899 3614.71,503.209 3637.54,524.806C3660.37,546.403 3689.07,557.201 3723.62,557.201C3759.41,557.201 3788.57,545.477 3811.09,522.029C3833.61,498.581 3844.87,471.739 3844.87,441.503C3844.87,406.948 3834.07,377.329 3812.48,352.647C3790.88,327.965 3761.26,315.624 3723.62,315.624Z" style="fill:#fff;fill-rule:nonzero;"/><rect x="4089.23" y="18.512" width="132.358" height="646.983" style="fill:#fff;fill-rule:nonzero;"/><rect x="4338.21" y="18.512" width="132.358" height="646.983" style="fill:#fff;fill-rule:nonzero;"/><path d="M4938.91,208.256L5063.87,208.256L5063.87,665.494L4943.54,665.494L4936.14,608.108C4922.56,632.173 4902.2,650.068 4875.05,661.792C4847.9,673.516 4821.36,679.378 4795.45,679.378C4725.72,679.378 4668.95,657.473 4625.14,613.662C4581.33,569.851 4559.42,510.922 4559.42,436.875C4559.42,364.063 4581.48,306.06 4625.6,262.866C4669.72,219.672 4725.41,198.075 4792.67,198.075C4861.16,198.075 4908.37,219.055 4934.28,261.014L4938.91,208.256ZM4813.03,315.624C4778.48,315.624 4749.78,326.577 4726.95,348.482C4704.12,370.388 4692.71,399.852 4692.71,436.875C4692.71,473.899 4704.12,503.209 4726.95,524.806C4749.78,546.403 4778.48,557.201 4813.03,557.201C4848.82,557.201 4877.98,545.477 4900.5,522.029C4923.02,498.581 4934.28,471.739 4934.28,441.503C4934.28,406.948 4923.49,377.329 4901.89,352.647C4880.29,327.965 4850.67,315.624 4813.03,315.624Z" style="fill:#fff;fill-rule:nonzero;"/><path d="M5578.49,607.183C5532.21,655.93 5472.66,680.304 5399.85,680.304C5328.27,680.304 5268.73,659.787 5221.22,618.752C5173.7,577.718 5149.94,518.018 5149.94,439.652C5149.94,365.605 5174.01,306.831 5222.14,263.328C5270.27,219.826 5329.2,198.075 5398.93,198.075C5469.27,198.075 5524.5,219.672 5564.61,262.866L5490.56,347.094C5466.49,329.199 5437.8,320.252 5404.48,320.252C5369.93,320.252 5341.23,330.896 5318.4,352.184C5295.57,373.473 5284.15,402.629 5284.15,439.652C5284.15,474.824 5295.57,502.746 5318.4,523.417C5341.23,544.089 5369,554.424 5401.7,554.424C5417.75,554.424 5434.56,551.339 5452.15,545.169C5469.73,538.998 5483.77,530.668 5494.26,520.178L5578.49,607.183Z" style="fill:#fff;fill-rule:nonzero;"/><path d="M5743.24,483.154C5746.95,506.603 5759.6,526.194 5781.19,541.929C5802.79,557.664 5831.48,565.531 5867.27,565.531C5919.11,565.531 5958.6,553.499 5985.75,529.434L6060.72,612.736C6015.06,657.781 5949.65,680.304 5864.49,680.304C5783.04,680.304 5719.95,657.935 5675.21,613.199C5630.48,568.462 5608.11,509.071 5608.11,435.024C5608.11,365.297 5630.17,308.528 5674.29,264.717C5718.41,220.906 5777.18,199 5850.61,199C5921.57,199 5978.19,218.129 6020.46,256.387C6062.72,294.644 6083.86,349.562 6083.86,421.14C6083.86,443.971 6082.32,464.643 6079.23,483.154L5743.24,483.154ZM5959.83,385.968C5958.6,362.52 5947.49,344.471 5926.51,331.822C5905.53,319.172 5880.23,312.847 5850.61,312.847C5823.46,312.847 5800.48,319.326 5781.66,332.284C5762.84,345.243 5750.03,363.137 5743.24,385.968L5959.83,385.968Z" style="fill:#fff;fill-rule:nonzero;"/></svg>