<?xml version="1.0" encoding="UTF-8" standalone="no"?><!DOCTYPE svg PUBLIC "-//W3C//DTD SVG 1.1//EN" "http://www.w3.org/Graphics/SVG/1.1/DTD/svg11.dtd"><svg width="1958px" height="1958px" version="1.1" xmlns="http://www.w3.org/2000/svg" xmlns:xlink="http://www.w3.org/1999/xlink" xml:space="preserve" xmlns:serif="http://www.serif.com/" style="fill-rule:evenodd;clip-rule:evenodd;stroke-linejoin:round;stroke-miterlimit:2;"><path d="M978.94,0C1519.23,0 1957.88,438.648 1957.88,978.94C1957.88,1519.23 1519.23,1957.88 978.94,1957.88C438.648,1957.88 0,1519.23 0,978.94C0,438.648 438.648,0 978.94,0ZM589.873,756.091L580.664,1059.98L589.873,1221.13C589.873,1230.34 594.477,1234.94 603.686,1234.94C608.29,1234.94 617.499,1230.34 617.499,1221.13L631.312,1059.98L617.499,756.091C617.499,746.882 612.894,742.278 603.686,742.278C594.477,742.278 589.873,746.882 589.873,756.091ZM769.442,728.465L760.233,1059.98L769.442,1216.53C769.442,1225.73 778.651,1234.94 787.859,1234.94C797.068,1234.94 806.277,1225.73 806.277,1216.53L815.485,1059.98L806.277,728.465C806.277,719.256 797.068,710.047 787.859,710.047C778.651,710.047 769.442,719.256 769.442,728.465ZM1031.89,604.147C1018.08,608.752 1013.47,613.356 1013.47,627.169L1013.47,1211.92C1013.47,1221.13 1022.68,1230.34 1031.89,1234.94L1542.97,1234.94C1644.27,1234.94 1727.15,1152.06 1727.15,1050.77C1727.15,949.473 1644.27,866.595 1542.97,866.595C1519.95,866.595 1492.32,871.199 1473.91,880.408C1460.09,714.652 1321.96,585.73 1151.6,585.73L1128.58,585.73C1096.35,585.73 1064.12,594.939 1031.89,604.147ZM470.16,908.034L460.951,1059.98L470.16,1221.13C470.16,1225.73 474.764,1230.34 479.368,1230.34C483.973,1230.34 488.577,1225.73 488.577,1221.13L506.994,1059.98L493.181,908.034C493.181,903.43 488.577,898.826 483.973,898.826C474.764,898.826 470.16,903.43 470.16,908.034ZM530.016,811.343L516.203,1059.98L530.016,1221.13C530.016,1225.73 534.62,1230.34 539.225,1230.34C548.433,1230.34 553.038,1225.73 553.038,1221.13L566.851,1059.98L553.038,811.343C553.038,806.739 548.433,802.134 543.829,802.134C534.62,802.134 530.016,806.739 530.016,811.343ZM649.729,728.465L640.52,1059.98L649.729,1216.53C649.729,1225.73 654.333,1230.34 663.542,1230.34C672.751,1230.34 677.355,1225.73 677.355,1216.53L686.564,1059.98L677.355,728.465C677.355,719.256 672.751,714.652 663.542,714.652C654.333,714.652 649.729,723.86 649.729,728.465ZM833.903,742.278L824.694,1059.98L833.903,1211.92C833.903,1221.13 843.112,1230.34 852.32,1230.34C861.529,1230.34 870.738,1221.13 870.738,1211.92L879.946,1059.98L870.738,737.673C870.738,728.465 861.529,719.256 852.32,719.256C838.507,723.86 833.903,728.465 833.903,742.278ZM958.22,645.587L949.011,1059.98L958.22,1211.92C958.22,1221.13 967.429,1230.34 976.638,1230.34C985.846,1230.34 995.055,1221.13 995.055,1211.92L1004.26,1059.98L995.055,645.587C995.055,636.378 985.846,627.169 976.638,627.169L972.033,627.169C962.825,627.169 958.22,636.378 958.22,645.587ZM893.759,677.817L884.551,1059.98L893.759,1211.92C893.759,1221.13 902.968,1230.34 912.177,1230.34C921.385,1230.34 930.594,1221.13 930.594,1211.92L939.803,1059.98L930.594,677.817C930.594,668.608 921.385,659.4 912.177,659.4C902.968,659.4 893.759,668.608 893.759,677.817ZM709.586,719.256L700.377,1059.98L709.586,1216.53C709.586,1225.73 714.19,1230.34 723.399,1230.34C732.607,1230.34 737.212,1225.73 737.212,1216.53L746.42,1059.98L737.212,719.256C737.212,710.047 728.003,705.443 723.399,705.443C718.794,705.443 709.586,710.047 709.586,719.256ZM410.303,894.221L396.49,1059.98L410.303,1216.53C410.303,1221.13 414.907,1225.73 419.512,1225.73C424.116,1225.73 428.721,1221.13 428.721,1216.53L442.534,1059.98L428.721,894.221C428.721,889.617 424.116,885.012 419.512,885.012C414.907,885.012 414.907,889.617 410.303,894.221ZM355.051,898.826L341.238,1059.98L355.051,1211.92C355.051,1216.53 359.655,1221.13 364.26,1221.13C364.26,1221.13 368.864,1216.53 368.864,1211.92L382.677,1059.98L368.864,898.826C368.864,894.221 364.26,889.617 359.655,889.617C359.655,894.221 355.051,894.221 355.051,898.826ZM295.195,926.452L281.381,1059.98L295.195,1193.5C295.195,1198.11 299.799,1198.11 299.799,1198.11C304.403,1198.11 304.403,1193.5 304.403,1193.5L322.821,1059.98L304.403,926.452C304.403,921.847 299.799,921.847 299.799,921.847L295.195,926.452ZM239.942,977.099L230.734,1059.98L239.942,1142.86C239.942,1147.46 244.547,1147.46 244.547,1147.46C249.151,1147.46 249.151,1142.86 249.151,1142.86L262.964,1059.98L249.151,977.099C249.151,972.495 244.547,972.495 244.547,972.495C244.547,972.495 239.942,972.495 239.942,977.099Z" style="fill:#fff;"/></svg>