<?xml version="1.0" encoding="UTF-8" standalone="no"?><!DOCTYPE svg PUBLIC "-//W3C//DTD SVG 1.1//EN" "http://www.w3.org/Graphics/SVG/1.1/DTD/svg11.dtd"><svg width="1958px" height="1958px" version="1.1" xmlns="http://www.w3.org/2000/svg" xmlns:xlink="http://www.w3.org/1999/xlink" xml:space="preserve" xmlns:serif="http://www.serif.com/" style="fill-rule:evenodd;clip-rule:evenodd;stroke-linejoin:round;stroke-miterlimit:2;"><path d="M978.94,0C1519.23,0 1957.88,438.648 1957.88,978.94C1957.88,1519.23 1519.23,1957.88 978.94,1957.88C438.648,1957.88 0,1519.23 0,978.94C0,438.648 438.648,0 978.94,0ZM978.901,360.094C637.182,360.172 360.172,637.182 360.094,978.901C360.172,1320.74 637.182,1597.75 978.901,1597.79C1320.74,1597.71 1597.75,1320.74 1597.79,978.901C1597.75,637.182 1320.74,360.172 978.901,360.094ZM1151.83,1491.46C1193.52,1443.38 1238.2,1376.43 1272.23,1288.4L1422.58,1288.4C1356.98,1382.23 1262.49,1454.1 1151.83,1491.46ZM940.262,746.911L940.262,940.301L709.742,940.301C712.875,866.658 724.207,802.491 740.878,746.911L940.262,746.911ZM940.262,1288.4L940.262,1512.31C903.905,1485.08 824.576,1415.65 768.803,1288.4L940.262,1288.4ZM709.549,1017.66L940.262,1017.66L940.262,1211.01L740.297,1211.01C723.743,1155.46 712.681,1090.95 709.549,1017.66ZM1035.14,1498.62C1028.45,1504.18 1022.68,1508.56 1017.62,1512.38L1017.62,1288.44L1189.23,1288.44C1168.85,1334.93 1145.25,1373.76 1121.82,1405.67C1090.14,1448.68 1058.46,1479.2 1035.14,1498.62ZM632.386,940.301L439.461,940.301C444.451,871.415 462.204,806.243 490.477,746.911L660.234,746.911C644.995,803.884 635.132,868.437 632.386,940.301ZM1422.69,669.594L1272.27,669.594C1238.2,581.409 1193.49,514.419 1151.75,466.342C1262.53,503.744 1357.09,575.685 1422.69,669.594ZM1017.62,1211.01L1017.62,1017.66L1248.1,1017.66C1244.97,1091.26 1233.63,1155.43 1217,1211.01L1017.62,1211.01ZM1325.49,940.301C1322.71,868.398 1312.88,803.884 1297.61,746.911L1467.33,746.911C1495.6,806.243 1513.39,871.415 1518.34,940.301L1325.49,940.301ZM535.305,1288.4L685.646,1288.4C719.643,1376.43 764.316,1443.38 806.011,1491.46C695.392,1454.1 600.902,1382.23 535.305,1288.4ZM806.088,466.342C764.394,514.458 719.643,581.448 685.607,669.594L535.189,669.594C600.825,575.685 695.392,503.744 806.088,466.342ZM1325.49,1017.66L1518.34,1017.66C1513.35,1086.54 1495.56,1151.67 1467.29,1211.01L1297.64,1211.01C1312.85,1154.07 1322.71,1089.56 1325.49,1017.66ZM439.461,1017.66L632.386,1017.66C635.132,1089.56 644.995,1154.07 660.234,1211.01L490.555,1211.01C462.281,1151.67 444.489,1086.58 439.461,1017.66ZM1017.62,445.65C1054.01,472.918 1133.3,542.383 1189.08,669.633L1017.62,669.633L1017.62,445.65ZM922.702,459.303C929.432,453.733 935.156,449.324 940.262,445.534L940.262,669.594L768.61,669.594C789.032,623.065 812.586,584.194 836.025,552.284C867.741,509.197 899.379,478.758 922.702,459.303ZM1217.54,746.911C1234.1,802.491 1245.16,867.006 1248.29,940.301L1017.62,940.301L1017.62,746.911L1217.54,746.911Z" style="fill:#fff;"/></svg>