<?xml version="1.0" encoding="UTF-8" standalone="no"?><!DOCTYPE svg PUBLIC "-//W3C//DTD SVG 1.1//EN" "http://www.w3.org/Graphics/SVG/1.1/DTD/svg11.dtd"><svg width="1958px" height="1958px" version="1.1" xmlns="http://www.w3.org/2000/svg" xmlns:xlink="http://www.w3.org/1999/xlink" xml:space="preserve" xmlns:serif="http://www.serif.com/" style="fill-rule:evenodd;clip-rule:evenodd;stroke-linejoin:round;stroke-miterlimit:2;"><path d="M978.94,0C1519.23,0 1957.88,438.648 1957.88,978.94C1957.88,1519.23 1519.23,1957.88 978.94,1957.88C438.648,1957.88 0,1519.23 0,978.94C0,438.648 438.648,0 978.94,0ZM1679.15,629.737L278.733,629.737L278.733,1328.14L1679.15,1328.14L1679.15,629.737ZM780.646,996.009L839.668,804.06L941.52,804.06L833.452,1155.52L727.841,1155.52L666.117,954.782L604.393,1155.52L498.782,1155.52L390.714,804.06L492.566,804.06L551.588,996.009L610.61,804.06L721.624,804.06L780.646,996.009Z" style="fill:#fff;"/></svg>